<?xml version="1.0" encoding="UTF-8"?>
<svg xmlns="http://www.w3.org/2000/svg" xmlns:xlink="http://www.w3.org/1999/xlink" width="218px" height="57px" viewBox="0 0 216 57" version="1.1">
<g id="surface1">
<path style=" stroke:none;fill-rule:nonzero;fill:rgb(92.156863%,40%,9.411765%);fill-opacity:1;" d="M 40.625 32.328125 C 37.722656 32.554688 35.007812 32.792969 32.28125 32.992188 C 31.042969 33.078125 29.792969 33.128906 28.554688 33.144531 C 28.082031 33.152344 27.835938 33.296875 27.738281 33.773438 C 27.351562 35.691406 26.871094 37.589844 26.578125 39.519531 C 26.339844 41.058594 25.886719 42.371094 24.488281 43.214844 C 23.1875 43.992188 21.863281 43.851562 20.917969 42.769531 C 20.246094 42 20.445312 41.058594 20.617188 40.234375 C 21.316406 36.917969 22.015625 33.582031 22.90625 30.316406 C 24.230469 25.480469 26.066406 20.84375 29.253906 16.910156 C 31.203125 14.5 33.664062 12.660156 36.8125 12.246094 C 40.523438 11.753906 43.332031 13.050781 45.007812 16.929688 C 46.167969 19.617188 46.585938 22.476562 46.59375 25.402344 C 46.59375 26.3125 46.789062 27.226562 46.726562 28.121094 C 46.570312 30.675781 46.371094 33.238281 46.113281 35.789062 C 45.980469 37.085938 45.828125 38.417969 45.46875 39.664062 C 44.996094 41.304688 42.851562 42.339844 41.355469 41.800781 C 40.285156 41.410156 39.746094 40.363281 39.914062 39.234375 C 40.132812 37.78125 40.265625 36.308594 40.417969 34.847656 C 40.503906 33.992188 40.558594 33.144531 40.625 32.328125 Z M 29.613281 27.257812 C 29.691406 27.332031 29.765625 27.417969 29.84375 27.496094 C 30.710938 27.417969 31.59375 27.34375 32.460938 27.277344 C 33.363281 27.207031 34.269531 27.191406 35.167969 27.113281 C 36.832031 26.972656 38.507812 26.820312 40.164062 26.617188 C 40.371094 26.589844 40.683594 26.265625 40.703125 26.070312 C 40.742188 25.613281 40.625 25.144531 40.578125 24.679688 C 40.40625 22.921875 40.078125 21.222656 39.253906 19.636719 C 38.296875 17.8125 36.8125 17.394531 35.113281 18.535156 C 33.710938 19.464844 32.800781 20.832031 32.035156 22.277344 C 31.167969 23.902344 30.410156 25.59375 29.613281 27.257812 Z M 29.613281 27.257812 "/>
<path style=" stroke:none;fill-rule:nonzero;fill:rgb(92.156863%,40%,9.411765%);fill-opacity:1;" d="M 62.160156 23.714844 C 63.417969 23.5625 64.488281 23.410156 65.546875 23.304688 C 67.289062 23.121094 68.511719 24.253906 68.101562 26.078125 C 67.628906 28.148438 66.285156 28.804688 64.507812 29.070312 C 63.617188 29.203125 62.71875 29.261719 61.832031 29.414062 C 61.628906 29.449219 61.355469 29.734375 61.328125 29.925781 C 61.222656 30.742188 61.175781 31.578125 61.148438 32.402344 C 61.101562 34.457031 58.738281 36.15625 56.804688 35.519531 C 55.90625 35.222656 55.300781 34.523438 55.300781 33.574219 C 55.300781 32.386719 55.414062 31.199219 55.480469 29.871094 C 55.1875 29.871094 54.816406 29.859375 54.449219 29.871094 C 53.523438 29.90625 52.585938 30.039062 51.65625 29.992188 C 50.332031 29.914062 49.480469 28.46875 49.839844 27.039062 C 50.238281 25.441406 51.695312 24.320312 53.359375 24.28125 C 54.335938 24.261719 55.320312 24.175781 56.324219 24.121094 C 56.511719 22.921875 56.691406 21.785156 56.851562 20.644531 C 57.109375 18.8125 59.371094 17.28125 61.066406 17.800781 C 62.40625 18.222656 62.964844 19.285156 62.664062 20.71875 C 62.472656 21.632812 62.347656 22.582031 62.160156 23.714844 Z M 62.160156 23.714844 "/>
<path style=" stroke:none;fill-rule:nonzero;fill:rgb(4.705882%,25.490196%,25.490196%);fill-opacity:1;" d="M 8.210938 15.621094 C 8.582031 15.742188 8.960938 15.875 9.246094 15.96875 C 4.636719 31.027344 7.671875 44.222656 18.429688 55.707031 C 18.324219 55.832031 18.191406 55.976562 18.0625 56.136719 C 17.929688 56.296875 17.796875 56.46875 17.675781 56.628906 C 5.410156 44.832031 3.640625 27.425781 8.210938 15.621094 Z M 8.210938 15.621094 "/>
<path style=" stroke:none;fill-rule:nonzero;fill:rgb(4.705882%,25.490196%,25.490196%);fill-opacity:1;" d="M 82.8125 37.171875 C 82.296875 37.078125 81.90625 37.011719 81.519531 36.945312 C 84.046875 23.761719 80.820312 12.265625 71.878906 2.394531 C 72.664062 1.386719 72.804688 1.351562 73.53125 2.320312 C 75.113281 4.4375 76.742188 6.535156 78.1875 8.738281 C 80.035156 11.542969 81.25 14.667969 82.132812 17.898438 C 82.671875 19.902344 83.195312 21.945312 83.355469 24 C 83.5625 26.65625 83.488281 29.347656 83.390625 32.027344 C 83.335938 33.714844 83.019531 35.386719 82.8125 37.171875 Z M 82.8125 37.171875 "/>
<path style=" stroke:none;fill-rule:nonzero;fill:rgb(4.705882%,25.490196%,25.490196%);fill-opacity:1;" d="M 157.710938 21.277344 C 157.710938 17.402344 157.710938 13.824219 157.710938 10.164062 C 158.804688 10.164062 159.855469 10.164062 160.992188 10.164062 C 160.992188 15.230469 160.992188 20.328125 160.992188 25.535156 C 159.609375 25.535156 158.246094 25.601562 156.898438 25.488281 C 156.546875 25.460938 156.1875 24.902344 155.914062 24.527344 C 153.46875 21.222656 151.050781 17.910156 148.492188 14.414062 C 148.492188 18.191406 148.492188 21.785156 148.492188 25.460938 C 147.347656 25.460938 146.296875 25.460938 145.160156 25.460938 C 145.160156 20.394531 145.160156 15.296875 145.160156 10.089844 C 146.546875 10.089844 147.90625 10.023438 149.257812 10.136719 C 149.609375 10.164062 149.96875 10.722656 150.242188 11.097656 C 152.675781 14.390625 155.097656 17.714844 157.710938 21.277344 Z M 157.710938 21.277344 "/>
<path style=" stroke:none;fill-rule:nonzero;fill:rgb(4.705882%,25.490196%,25.490196%);fill-opacity:1;" d="M 191.476562 20.1875 C 192.746094 20.1875 193.773438 20.1875 194.882812 20.1875 C 194.957031 21.984375 196.441406 22.191406 197.683594 22.304688 C 199.386719 22.457031 201.128906 22.269531 202.839844 22.144531 C 203.484375 22.097656 204.003906 21.785156 204.050781 20.957031 C 204.097656 20.140625 203.730469 19.796875 203 19.683594 C 202.195312 19.558594 201.394531 19.402344 200.578125 19.304688 C 198.816406 19.085938 197.03125 19.011719 195.292969 18.667969 C 191.742188 17.953125 191.257812 14.28125 192.679688 11.972656 C 193.445312 10.734375 194.855469 10.347656 196.179688 10.144531 C 198.695312 9.75 201.242188 9.738281 203.710938 10.546875 C 205.832031 11.238281 207.125 13.09375 206.71875 15.265625 C 205.832031 15.265625 204.902344 15.273438 203.984375 15.25 C 203.84375 15.25 203.613281 15.066406 203.578125 14.925781 C 203.304688 13.871094 202.507812 13.375 201.550781 13.347656 C 199.800781 13.289062 198.050781 13.375 196.300781 13.472656 C 195.761719 13.5 195.296875 13.757812 195.335938 14.488281 C 195.375 15.179688 195.640625 15.621094 196.347656 15.722656 C 197.21875 15.855469 198.089844 16.007812 198.96875 16.113281 C 200.703125 16.332031 202.441406 16.441406 204.152344 16.738281 C 207.132812 17.253906 207.738281 19.589844 207.285156 21.878906 C 206.765625 24.558594 204.988281 25.269531 202.433594 25.507812 C 200.605469 25.679688 198.734375 25.660156 196.898438 25.507812 C 194.855469 25.347656 192.886719 24.804688 192.023438 22.59375 C 191.761719 21.867188 191.675781 21.070312 191.476562 20.1875 Z M 191.476562 20.1875 "/>
<path style=" stroke:none;fill-rule:nonzero;fill:rgb(4.705882%,25.490196%,25.490196%);fill-opacity:1;" d="M 124.707031 32.832031 C 126.050781 32.832031 127.320312 32.804688 128.585938 32.847656 C 128.851562 32.859375 129.183594 33.066406 129.34375 33.285156 C 131.492188 36.167969 133.613281 39.054688 135.738281 41.941406 C 136.183594 42.550781 136.621094 43.167969 137.214844 43.984375 C 137.214844 40.15625 137.214844 36.546875 137.214844 32.878906 C 138.398438 32.878906 139.449219 32.878906 140.554688 32.878906 C 140.554688 37.925781 140.554688 42.9375 140.554688 48.078125 C 139.15625 48.078125 137.738281 48.230469 136.382812 48.003906 C 135.796875 47.910156 135.285156 47.054688 134.851562 46.476562 C 132.597656 43.445312 130.386719 40.386719 128.027344 37.144531 C 128.027344 40.878906 128.027344 44.402344 128.027344 48.003906 C 126.882812 48.003906 125.832031 48.003906 124.699219 48.003906 C 124.707031 43.015625 124.707031 37.980469 124.707031 32.832031 Z M 124.707031 32.832031 "/>
<path style=" stroke:none;fill-rule:nonzero;fill:rgb(4.705882%,25.490196%,25.490196%);fill-opacity:1;" d="M 153.261719 37.371094 C 153.261719 41.011719 153.261719 44.46875 153.261719 47.992188 C 152.144531 47.992188 151.066406 47.992188 149.941406 47.992188 C 149.941406 42.957031 149.941406 37.945312 149.941406 32.824219 C 151.277344 32.824219 152.570312 32.773438 153.859375 32.847656 C 154.179688 32.871094 154.570312 33.195312 154.789062 33.488281 C 157.285156 36.878906 159.742188 40.289062 162.222656 43.699219 C 162.25 43.738281 162.324219 43.75 162.476562 43.816406 C 162.476562 40.175781 162.476562 36.574219 162.476562 32.910156 C 163.546875 32.910156 164.53125 32.910156 165.601562 32.910156 C 165.601562 37.902344 165.601562 42.9375 165.601562 48.078125 C 164.226562 48.078125 162.855469 48.144531 161.503906 48.03125 C 161.152344 48.003906 160.792969 47.445312 160.519531 47.074219 C 158.238281 43.96875 155.980469 40.851562 153.707031 37.742188 C 153.640625 37.648438 153.519531 37.582031 153.261719 37.371094 Z M 153.261719 37.371094 "/>
<path style=" stroke:none;fill-rule:nonzero;fill:rgb(4.705882%,25.490196%,25.490196%);fill-opacity:1;" d="M 181.160156 13.402344 C 181.160156 14.457031 181.160156 15.316406 181.160156 16.300781 C 184.40625 16.300781 187.628906 16.300781 190.898438 16.300781 C 190.898438 17.335938 190.898438 18.257812 190.898438 19.265625 C 187.671875 19.265625 184.484375 19.265625 181.210938 19.265625 C 181.210938 20.234375 181.210938 21.117188 181.210938 22.125 C 184.390625 22.125 187.617188 22.125 190.890625 22.125 C 190.890625 23.292969 190.890625 24.347656 190.890625 25.480469 C 186.558594 25.480469 182.230469 25.480469 177.84375 25.480469 C 177.84375 20.40625 177.84375 15.324219 177.84375 10.164062 C 182.144531 10.164062 186.472656 10.164062 190.878906 10.164062 C 190.878906 11.179688 190.878906 12.234375 190.878906 13.414062 C 187.699219 13.402344 184.484375 13.402344 181.160156 13.402344 Z M 181.160156 13.402344 "/>
<path style=" stroke:none;fill-rule:nonzero;fill:rgb(4.705882%,25.490196%,25.490196%);fill-opacity:1;" d="M 115.75 32.59375 C 117.792969 32.691406 119.511719 32.910156 121.066406 33.972656 C 122.417969 34.894531 123.011719 36.195312 123.421875 37.714844 C 124.007812 39.9375 123.863281 42.113281 123.15625 44.25 C 122.375 46.605469 120.539062 47.878906 118.199219 48.230469 C 116.429688 48.5 114.59375 48.546875 112.832031 48.011719 C 110.554688 47.316406 109.078125 45.902344 108.558594 43.472656 C 108.011719 40.90625 108 38.425781 109.125 36.015625 C 110.023438 34.085938 111.707031 33.269531 113.640625 32.859375 C 114.40625 32.679688 115.203125 32.652344 115.75 32.59375 Z M 115.992188 44.90625 C 116.328125 44.90625 116.667969 44.941406 116.996094 44.898438 C 118.300781 44.734375 119.511719 44.261719 119.949219 42.9375 C 120.289062 41.902344 120.507812 40.707031 120.355469 39.652344 C 120.222656 38.703125 119.730469 37.554688 119.011719 36.996094 C 117.234375 35.59375 115.160156 35.832031 113.183594 36.714844 C 112.855469 36.859375 112.558594 37.183594 112.351562 37.496094 C 111.160156 39.242188 111.273438 41.144531 112.03125 42.957031 C 112.730469 44.660156 114.300781 44.992188 115.992188 44.90625 Z M 115.992188 44.90625 "/>
<path style=" stroke:none;fill-rule:nonzero;fill:rgb(4.705882%,25.490196%,25.490196%);fill-opacity:1;" d="M 182.402344 40.515625 C 181.988281 42.054688 181.730469 43.664062 181.117188 45.125 C 180.339844 46.96875 178.667969 47.839844 176.765625 48.136719 C 174.492188 48.488281 172.242188 48.535156 170.039062 47.535156 C 167.984375 46.605469 167.230469 44.839844 166.761719 42.890625 C 166.328125 41.070312 166.507812 39.207031 166.945312 37.382812 C 167.519531 34.929688 169.667969 33.144531 172.183594 32.804688 C 174.183594 32.527344 176.121094 32.554688 178.03125 33.230469 C 180.3125 34.035156 181.445312 35.808594 181.921875 38.066406 C 182.078125 38.835938 182.109375 39.644531 182.195312 40.429688 C 182.261719 40.472656 182.328125 40.496094 182.402344 40.515625 Z M 174.53125 44.90625 C 174.65625 44.90625 175.023438 44.925781 175.394531 44.90625 C 176.808594 44.832031 178.277344 43.765625 178.535156 42.457031 C 178.730469 41.457031 178.828125 40.40625 178.730469 39.394531 C 178.582031 37.847656 177.804688 36.714844 176.167969 36.300781 C 174.761719 35.9375 173.375 35.964844 172.03125 36.460938 C 171.539062 36.640625 170.992188 36.996094 170.71875 37.421875 C 169.6875 39.082031 169.5625 40.90625 170.257812 42.71875 C 170.964844 44.582031 172.535156 44.960938 174.53125 44.90625 Z M 174.53125 44.90625 "/>
<path style=" stroke:none;fill-rule:nonzero;fill:rgb(4.705882%,25.490196%,25.490196%);fill-opacity:1;" d="M 116.355469 21.308594 C 116.355469 22.125 116.355469 22.789062 116.355469 23.457031 C 116.355469 24.121094 116.355469 24.773438 116.355469 25.488281 C 115.203125 25.488281 114.152344 25.488281 113.042969 25.488281 C 113.042969 20.359375 113.042969 15.273438 113.042969 10.089844 C 115.578125 10.089844 118.078125 10.070312 120.5625 10.097656 C 121.585938 10.109375 122.617188 10.15625 123.632812 10.296875 C 125.683594 10.589844 126.742188 11.980469 127.175781 13.890625 C 127.566406 15.601562 127.621094 17.328125 126.761719 18.925781 C 125.9375 20.4375 124.757812 21.40625 122.882812 21.339844 C 120.761719 21.253906 118.625 21.308594 116.355469 21.308594 Z M 116.410156 17.933594 C 118.386719 17.933594 120.320312 17.945312 122.238281 17.933594 C 123.5 17.925781 124.484375 16.660156 124.1875 15.425781 C 124.007812 14.652344 123.753906 13.746094 122.835938 13.699219 C 120.714844 13.605469 118.585938 13.671875 116.410156 13.671875 C 116.410156 15.113281 116.410156 16.472656 116.410156 17.933594 Z M 116.410156 17.933594 "/>
<path style=" stroke:none;fill-rule:nonzero;fill:rgb(4.705882%,25.490196%,25.490196%);fill-opacity:1;" d="M 107.253906 39.394531 C 106.152344 39.394531 105.132812 39.394531 104.109375 39.394531 C 103.703125 37.183594 102.304688 35.777344 98.957031 36.167969 C 97.753906 36.308594 96.675781 36.574219 96.011719 37.640625 C 94.960938 39.339844 95.019531 41.191406 95.765625 42.949219 C 96.421875 44.507812 97.847656 44.972656 99.449219 44.90625 C 100.097656 44.875 100.753906 44.800781 101.40625 44.714844 C 102.882812 44.515625 103.648438 43.527344 103.953125 42.191406 C 104.074219 41.628906 104.28125 41.464844 104.800781 41.488281 C 105.597656 41.507812 106.402344 41.496094 107.1875 41.496094 C 107.78125 43.824219 106.097656 46.929688 103.515625 47.773438 C 100.402344 48.792969 97.253906 48.851562 94.386719 46.882812 C 93.15625 46.039062 92.605469 44.753906 92.285156 43.328125 C 91.773438 41.039062 91.839844 38.785156 92.617188 36.59375 C 93.34375 34.550781 94.945312 33.414062 96.980469 32.957031 C 99.4375 32.402344 101.886719 32.441406 104.214844 33.589844 C 106.261719 34.601562 107.519531 36.964844 107.253906 39.394531 Z M 107.253906 39.394531 "/>
<path style=" stroke:none;fill-rule:nonzero;fill:rgb(4.705882%,25.490196%,25.490196%);fill-opacity:1;" d="M 111.890625 25.535156 C 110.667969 25.535156 109.703125 25.574219 108.738281 25.507812 C 108.480469 25.488281 108.113281 25.1875 108.019531 24.917969 C 106.996094 22.3125 107.007812 22.3125 104.308594 22.3125 C 103.003906 22.3125 101.699219 22.277344 100.402344 22.34375 C 100.089844 22.363281 99.683594 22.683594 99.523438 22.972656 C 99.089844 23.78125 98.765625 24.644531 98.378906 25.527344 C 97.363281 25.527344 96.335938 25.527344 95.304688 25.527344 C 95.144531 25.527344 94.980469 25.507812 94.753906 25.488281 C 95.832031 22.886719 96.871094 20.339844 97.941406 17.800781 C 98.9375 15.4375 99.988281 13.09375 100.925781 10.707031 C 101.132812 10.175781 101.367188 10.050781 101.84375 10.070312 C 102.609375 10.089844 103.394531 10.175781 104.140625 10.050781 C 105.320312 9.851562 105.75 10.503906 106.128906 11.4375 C 107.78125 15.484375 109.476562 19.511719 111.140625 23.550781 C 111.386719 24.152344 111.597656 24.765625 111.890625 25.535156 Z M 103.324219 13.386719 C 102.503906 15.4375 101.78125 17.222656 101.054688 19.054688 C 102.664062 19.054688 104.09375 19.054688 105.644531 19.054688 C 104.875 17.183594 104.167969 15.4375 103.324219 13.386719 Z M 103.324219 13.386719 "/>
<path style=" stroke:none;fill-rule:nonzero;fill:rgb(4.705882%,25.490196%,25.490196%);fill-opacity:1;" d="M 210.285156 48.078125 C 209.167969 48.078125 208.230469 48.144531 207.304688 48.050781 C 206.945312 48.011719 206.433594 47.699219 206.300781 47.378906 C 205.234375 44.867188 205.253906 44.859375 202.621094 44.859375 C 201.449219 44.859375 200.285156 44.917969 199.121094 44.839844 C 198.421875 44.792969 197.996094 45.050781 197.894531 45.667969 C 197.417969 48.449219 195.46875 48.363281 193.273438 47.957031 C 195.335938 42.96875 197.417969 37.945312 199.535156 32.832031 C 200.792969 32.832031 202.128906 32.804688 203.453125 32.859375 C 203.710938 32.871094 204.050781 33.203125 204.164062 33.46875 C 205.460938 36.519531 206.71875 39.597656 207.996094 42.652344 C 208.734375 44.414062 209.480469 46.160156 210.285156 48.078125 Z M 199.414062 41.835938 C 200.988281 41.835938 202.46875 41.835938 204.082031 41.835938 C 203.292969 39.917969 202.535156 38.085938 201.734375 36.148438 C 200.925781 38.132812 200.179688 39.964844 199.414062 41.835938 Z M 199.414062 41.835938 "/>
<path style=" stroke:none;fill-rule:nonzero;fill:rgb(4.705882%,25.490196%,25.490196%);fill-opacity:1;" d="M 140.667969 10.128906 C 141.859375 10.128906 142.894531 10.128906 144.019531 10.128906 C 144.019531 13.175781 144.074219 16.1875 143.980469 19.1875 C 143.953125 20.140625 143.5625 21.109375 143.234375 22.019531 C 142.4375 24.195312 140.640625 25.121094 138.550781 25.496094 C 136.792969 25.820312 135.023438 25.746094 133.261719 25.339844 C 130.441406 24.679688 128.871094 22.636719 128.691406 20.046875 C 128.476562 16.789062 128.636719 13.5 128.636719 10.15625 C 129.523438 10.15625 130.574219 10.15625 131.796875 10.15625 C 131.796875 10.429688 131.796875 10.742188 131.796875 11.066406 C 131.796875 13.347656 131.796875 15.625 131.796875 17.910156 C 131.796875 20.738281 133.296875 22.289062 136.050781 22.152344 C 136.773438 22.117188 137.527344 22.136719 138.199219 21.925781 C 139.800781 21.441406 140.660156 20.199219 140.667969 18.507812 C 140.679688 16.054688 140.667969 13.613281 140.667969 11.164062 C 140.667969 10.839844 140.667969 10.503906 140.667969 10.128906 Z M 140.667969 10.128906 "/>
<path style=" stroke:none;fill-rule:nonzero;fill:rgb(4.705882%,25.490196%,25.490196%);fill-opacity:1;" d="M 167.785156 13.640625 C 165.742188 13.640625 163.886719 13.640625 161.976562 13.640625 C 161.976562 12.433594 161.976562 11.316406 161.976562 10.136719 C 166.933594 10.136719 171.855469 10.136719 176.839844 10.136719 C 176.839844 11.265625 176.839844 12.386719 176.839844 13.632812 C 174.96875 13.632812 173.082031 13.632812 171.125 13.632812 C 171.125 17.625 171.125 21.496094 171.125 25.449219 C 170 25.449219 168.949219 25.449219 167.777344 25.449219 C 167.785156 21.601562 167.785156 17.699219 167.785156 13.640625 Z M 167.785156 13.640625 "/>
<path style=" stroke:none;fill-rule:nonzero;fill:rgb(4.705882%,25.490196%,25.490196%);fill-opacity:1;" d="M 187.785156 47.992188 C 187.785156 45.960938 187.785156 44.023438 187.785156 42.074219 C 187.785156 40.167969 187.785156 38.257812 187.785156 36.234375 C 185.859375 36.234375 183.972656 36.234375 182.035156 36.234375 C 182.035156 35.066406 182.035156 34.011719 182.035156 32.890625 C 186.972656 32.890625 191.894531 32.890625 196.890625 32.890625 C 196.890625 33.933594 196.890625 34.988281 196.890625 36.167969 C 195.03125 36.167969 193.152344 36.167969 191.195312 36.167969 C 191.195312 40.15625 191.195312 44.035156 191.195312 47.992188 C 190.019531 47.992188 188.921875 47.992188 187.785156 47.992188 Z M 187.785156 47.992188 "/>
</g>
</svg>
