<?xml version="1.0" encoding="utf-8"?>
<!-- Generator: Adobe Illustrator 24.1.1, SVG Export Plug-In . SVG Version: 6.00 Build 0)  -->
<svg version="1.1" id="Capa_1" xmlns="http://www.w3.org/2000/svg" xmlns:xlink="http://www.w3.org/1999/xlink" x="0px" y="0px"
	 viewBox="0 0 2283 600" style="enable-background:new 0 0 2283 600;" xml:space="preserve">
<style type="text/css">
	.st0{fill:#EB6618;}
	.st1{fill:#0C4141;}
</style>
<g>
	<g>
		<path class="st0" d="M429.4,340.3c-30.7,2.4-59.4,4.9-88.2,7c-13.1,0.9-26.3,1.4-39.4,1.6c-5,0.1-7.6,1.6-8.6,6.6
			c-4.1,20.2-9.2,40.2-12.3,60.5c-2.5,16.2-7.3,30-22.1,38.9c-13.7,8.2-27.7,6.7-37.7-4.7c-7.1-8.1-5-18-3.2-26.7
			c7.4-34.9,14.8-70,24.2-104.4c14-50.9,33.4-99.7,67.1-141.1c20.6-25.4,46.6-44.7,79.9-49.1c39.2-5.2,68.9,8.5,86.6,49.3
			c12.3,28.3,16.7,58.4,16.8,89.2c0,9.6,2,19.2,1.4,28.6c-1.7,26.9-3.8,53.9-6.5,80.7c-1.4,13.7-3,27.7-6.8,40.8
			c-5,17.3-27.7,28.2-43.5,22.5c-11.3-4.1-17-15.1-15.2-27c2.3-15.3,3.7-30.8,5.3-46.2C428.1,357.8,428.7,348.9,429.4,340.3z
			 M313,286.9c0.8,0.8,1.6,1.7,2.4,2.5c9.2-0.8,18.5-1.6,27.7-2.3c9.5-0.7,19.1-0.9,28.6-1.7c17.6-1.5,35.3-3.1,52.8-5.2
			c2.2-0.3,5.5-3.7,5.7-5.8c0.4-4.8-0.8-9.7-1.3-14.6c-1.8-18.5-5.3-36.4-14-53.1c-10.1-19.2-25.8-23.6-43.8-11.6
			c-14.8,9.8-24.4,24.2-32.5,39.4C329.4,251.6,321.4,269.4,313,286.9z"/>
		<path class="st0" d="M657,249.6c13.3-1.6,24.6-3.2,35.8-4.3c18.4-1.9,31.3,10,27,29.2c-5,21.8-19.2,28.7-38,31.5
			c-9.4,1.4-18.9,2-28.3,3.6c-2.1,0.4-5,3.4-5.3,5.4c-1.1,8.6-1.6,17.4-1.9,26.1c-0.5,21.6-25.5,39.5-45.9,32.8
			c-9.5-3.1-15.9-10.5-15.9-20.5c0-12.5,1.2-25,1.9-39c-3.1,0-7-0.1-10.9,0c-9.8,0.4-19.7,1.8-29.5,1.3c-14-0.8-23-16-19.2-31.1
			c4.2-16.8,19.6-28.6,37.2-29c10.3-0.2,20.7-1.1,31.3-1.7c2-12.6,3.9-24.6,5.6-36.6c2.7-19.3,26.6-35.4,44.5-29.9
			c14.2,4.4,20.1,15.6,16.9,30.7C660.3,227.7,659,237.7,657,249.6z"/>
		<path class="st1" d="M86.8,164.4c3.9,1.3,7.9,2.7,10.9,3.7C49,326.6,81.1,465.5,194.8,586.4c-1.1,1.3-2.5,2.8-3.9,4.5
			c-1.4,1.7-2.8,3.5-4.1,5.2C57.2,471.9,38.5,288.7,86.8,164.4z"/>
		<path class="st1" d="M875.3,391.3c-5.5-1-9.6-1.7-13.7-2.4c26.7-138.8-7.4-259.8-101.9-363.7c8.3-10.6,9.8-11,17.5-0.8
			c16.7,22.3,33.9,44.4,49.2,67.6c19.5,29.5,32.4,62.4,41.7,96.4c5.7,21.1,11.2,42.6,12.9,64.2c2.2,28,1.4,56.3,0.4,84.5
			C880.8,354.9,877.5,372.5,875.3,391.3z"/>
	</g>
	<g>
		<path class="st1" d="M1666.9,224c0-40.8,0-78.5,0-117c11.6,0,22.7,0,34.7,0c0,53.3,0,107,0,161.8c-14.6,0-29,0.7-43.3-0.5
			c-3.7-0.3-7.5-6.2-10.4-10.1c-25.8-34.8-51.4-69.7-78.4-106.5c0,39.8,0,77.6,0,116.3c-12.1,0-23.2,0-35.2,0c0-53.3,0-107,0-161.8
			c14.6,0,29-0.7,43.3,0.5c3.7,0.3,7.5,6.2,10.4,10.1C1613.7,151.5,1639.3,186.5,1666.9,224z"/>
		<path class="st1" d="M2023.8,212.5c13.4,0,24.3,0,36,0c0.8,18.9,16.5,21.1,29.6,22.3c18,1.6,36.4-0.4,54.5-1.7
			c6.8-0.5,12.3-3.8,12.8-12.5c0.5-8.6-3.4-12.2-11.1-13.4c-8.5-1.3-17-3-25.6-4c-18.6-2.3-37.5-3.1-55.9-6.7
			c-37.5-7.5-42.6-46.2-27.6-70.5c8.1-13,23-17.1,37-19.2c26.6-4.2,53.5-4.3,79.6,4.2c22.4,7.3,36.1,26.8,31.8,49.7
			c-9.4,0-19.2,0.1-28.9-0.2c-1.5,0-3.9-1.9-4.3-3.4c-2.9-11.1-11.3-16.3-21.4-16.6c-18.5-0.6-37,0.3-55.5,1.3
			c-5.7,0.3-10.6,3-10.2,10.7c0.4,7.3,3.2,11.9,10.7,13c9.2,1.4,18.4,3,27.7,4.1c18.3,2.3,36.7,3.5,54.8,6.6
			c31.5,5.4,37.9,30,33.1,54.1c-5.5,28.2-24.3,35.7-51.3,38.2c-19.3,1.8-39.1,1.6-58.5,0c-21.6-1.7-42.4-7.4-51.5-30.7
			C2026.8,230.2,2025.9,221.8,2023.8,212.5z"/>
		<path class="st1" d="M1318.1,345.6c14.2,0,27.6-0.3,41,0.2c2.8,0.1,6.3,2.3,8,4.6c22.7,30.3,45.1,60.7,67.6,91.1
			c4.7,6.4,9.3,12.9,15.6,21.5c0-40.3,0-78.3,0-116.9c12.5,0,23.6,0,35.3,0c0,53.1,0,105.9,0,160c-14.8,0-29.8,1.6-44.1-0.8
			c-6.2-1-11.6-10-16.2-16.1c-23.8-31.9-47.2-64.1-72.1-98.2c0,39.3,0,76.4,0,114.3c-12.1,0-23.2,0-35.2,0
			C1318.1,452.8,1318.1,399.8,1318.1,345.6z"/>
		<path class="st1" d="M1619.9,393.4c0,38.3,0,74.7,0,111.8c-11.8,0-23.2,0-35.1,0c0-53,0-105.8,0-159.7c14.1,0,27.8-0.5,41.4,0.3
			c3.4,0.2,7.5,3.6,9.8,6.7c26.4,35.7,52.4,71.6,78.6,107.5c0.3,0.4,1.1,0.5,2.7,1.2c0-38.3,0-76.2,0-114.8c11.3,0,21.7,0,33,0
			c0,52.6,0,105.6,0,159.7c-14.5,0-29,0.7-43.3-0.5c-3.7-0.3-7.5-6.2-10.4-10.1c-24.1-32.7-48-65.5-72-98.2
			C1623.9,396.3,1622.6,395.6,1619.9,393.4z"/>
		<path class="st1" d="M1914.8,141.1c0,11.1,0,20.1,0,30.5c34.3,0,68.3,0,102.9,0c0,10.9,0,20.6,0,31.2c-34.1,0-67.8,0-102.4,0
			c0,10.2,0,19.5,0,30.1c33.6,0,67.7,0,102.3,0c0,12.3,0,23.4,0,35.3c-45.8,0-91.5,0-137.9,0c0-53.4,0-106.9,0-161.2
			c45.5,0,91.2,0,137.8,0c0,10.7,0,21.8,0,34.2C1983.9,141.1,1949.9,141.1,1914.8,141.1z"/>
		<path class="st1" d="M1223.4,343.1c21.6,1,39.8,3.3,56.2,14.5c14.3,9.7,20.6,23.4,24.9,39.4c6.2,23.4,4.7,46.3-2.8,68.8
			c-8.3,24.8-27.7,38.2-52.4,41.9c-18.7,2.8-38.1,3.3-56.7-2.3c-24.1-7.3-39.7-22.2-45.2-47.8c-5.8-27-5.9-53.1,6-78.5
			c9.5-20.3,27.3-28.9,47.7-33.2C1209.2,344,1217.6,343.7,1223.4,343.1z M1226,472.7c3.5,0,7.1,0.4,10.6-0.1
			c13.8-1.7,26.6-6.7,31.2-20.6c3.6-10.9,5.9-23.5,4.3-34.6c-1.4-10-6.6-22.1-14.2-28c-18.8-14.7-40.7-12.2-61.6-2.9
			c-3.5,1.5-6.6,4.9-8.8,8.2c-12.6,18.4-11.4,38.4-3.4,57.5C1191.5,470.1,1208.1,473.6,1226,472.7z"/>
		<path class="st1" d="M1927.9,426.5c-4.4,16.2-7.1,33.1-13.6,48.5c-8.2,19.4-25.9,28.6-46,31.7c-24,3.7-47.8,4.2-71.1-6.3
			c-21.7-9.8-29.7-28.4-34.6-48.9c-4.6-19.2-2.7-38.8,1.9-58c6.1-25.8,28.8-44.6,55.4-48.2c21.1-2.9,41.6-2.6,61.8,4.5
			c24.1,8.5,36.1,27.1,41.1,50.9c1.7,8.1,2,16.6,2.9,24.9C1926.4,426,1927.1,426.3,1927.9,426.5z M1844.7,472.7c1.3,0,5.2,0.2,9.1,0
			c15-0.8,30.5-12,33.2-25.8c2.1-10.5,3.1-21.6,2.1-32.2c-1.6-16.3-9.8-28.2-27.1-32.6c-14.9-3.8-29.5-3.5-43.7,1.7
			c-5.2,1.9-11,5.6-13.9,10.1c-10.9,17.5-12.2,36.7-4.9,55.8C1807,469.3,1823.6,473.3,1844.7,472.7z"/>
		<path class="st1" d="M1229.8,224.3c0,8.6,0,15.6,0,22.6c0,7,0,13.9,0,21.4c-12.2,0-23.3,0-35,0c0-54,0-107.5,0-162.1
			c26.8,0,53.2-0.2,79.5,0.1c10.8,0.1,21.7,0.6,32.4,2.1c21.7,3.1,32.9,17.7,37.5,37.8c4.1,18,4.7,36.2-4.4,53
			c-8.7,15.9-21.2,26.1-41,25.4C1276.4,223.7,1253.8,224.3,1229.8,224.3z M1230.4,188.8c20.9,0,41.3,0.1,61.6,0
			c13.3-0.1,23.7-13.4,20.6-26.4c-1.9-8.2-4.6-17.7-14.3-18.2c-22.4-1-44.9-0.3-67.9-0.3C1230.4,159.1,1230.4,173.4,1230.4,188.8z"
			/>
		<path class="st1" d="M1133.6,414.7c-11.6,0-22.4,0-33.2,0c-4.3-23.3-19.1-38.1-54.5-34c-12.7,1.5-24.1,4.3-31.1,15.5
			c-11.1,17.9-10.5,37.4-2.6,55.9c6.9,16.4,22,21.3,38.9,20.6c6.9-0.3,13.8-1.1,20.7-2c15.6-2.1,23.7-12.5,26.9-26.6
			c1.3-5.9,3.5-7.6,9-7.4c8.4,0.2,16.9,0.1,25.2,0.1c6.3,24.5-11.5,57.2-38.8,66.1c-32.9,10.7-66.2,11.3-96.5-9.4
			c-13-8.9-18.8-22.4-22.2-37.4c-5.4-24.1-4.7-47.8,3.5-70.9c7.7-21.5,24.6-33.5,46.1-38.3c26-5.8,51.9-5.4,76.5,6.7
			C1123.1,364.2,1136.4,389.1,1133.6,414.7z"/>
		<path class="st1" d="M1182.6,268.8c-12.9,0-23.1,0.4-33.3-0.3c-2.7-0.2-6.6-3.4-7.6-6.2c-10.8-27.4-10.7-27.4-39.2-27.4
			c-13.8,0-27.6-0.4-41.3,0.3c-3.3,0.2-7.6,3.6-9.3,6.6c-4.6,8.5-8,17.6-12.1,26.9c-10.7,0-21.6,0-32.5,0c-1.7,0-3.4-0.2-5.8-0.4
			c11.4-27.4,22.4-54.2,33.7-80.9c10.5-24.9,21.6-49.6,31.5-74.7c2.2-5.6,4.7-6.9,9.7-6.7c8.1,0.2,16.4,1.1,24.3-0.2
			c12.5-2.1,17,4.8,21,14.6c17.5,42.6,35.4,85,53,127.5C1177.3,254.2,1179.5,260.7,1182.6,268.8z M1092.1,140.9
			c-8.7,21.6-16.3,40.4-24,59.7c17,0,32.1,0,48.5,0C1108.5,180.9,1101,162.5,1092.1,140.9z"/>
		<path class="st1" d="M2222.6,506.1c-11.8,0-21.7,0.7-31.5-0.3c-3.8-0.4-9.2-3.7-10.6-7.1c-11.3-26.4-11.1-26.5-38.9-26.5
			c-12.4,0-24.7,0.6-37-0.2c-7.4-0.5-11.9,2.2-13,8.7c-5,29.3-25.6,28.4-48.8,24.1c21.8-52.5,43.8-105.4,66.2-159.2
			c13.3,0,27.4-0.3,41.4,0.3c2.7,0.1,6.3,3.6,7.5,6.4c13.7,32.1,27,64.5,40.5,96.7C2206.2,467.5,2214.1,485.9,2222.6,506.1z
			 M2107.7,440.4c16.6,0,32.3,0,49.3,0c-8.3-20.2-16.3-39.5-24.8-59.9C2123.7,401.4,2115.8,420.7,2107.7,440.4z"/>
		<path class="st1" d="M1486.8,106.6c12.6,0,23.5,0,35.4,0c0,32.1,0.6,63.8-0.4,95.4c-0.3,10-4.4,20.2-7.9,29.8
			c-8.4,22.9-27.4,32.6-49.5,36.6c-18.6,3.4-37.3,2.6-55.9-1.7c-29.8-6.9-46.4-28.4-48.3-55.7c-2.3-34.3-0.6-68.9-0.6-104.1
			c9.4,0,20.5,0,33.4,0c0,2.9,0,6.2,0,9.6c0,24,0,48,0,72c0,29.8,15.9,46.1,45,44.7c7.6-0.4,15.6-0.2,22.7-2.4
			c16.9-5.1,26-18.2,26.1-36c0.1-25.8,0-51.5,0-77.3C1486.8,114.1,1486.8,110.6,1486.8,106.6z"/>
		<path class="st1" d="M1773.4,143.6c-21.6,0-41.2,0-61.4,0c0-12.7,0-24.5,0-36.9c52.4,0,104.4,0,157.1,0c0,11.9,0,23.7,0,36.8
			c-19.8,0-39.7,0-60.4,0c0,42,0,82.8,0,124.4c-11.9,0-23,0-35.4,0C1773.4,227.4,1773.4,186.3,1773.4,143.6z"/>
		<path class="st1" d="M1984.8,505.2c0-21.4,0-41.8,0-62.3c0-20.1,0-40.2,0-61.5c-20.4,0-40.3,0-60.8,0c0-12.3,0-23.4,0-35.2
			c52.2,0,104.2,0,157,0c0,11,0,22.1,0,34.5c-19.6,0-39.5,0-60.2,0c0,42,0,82.8,0,124.5C2008.4,505.2,1996.8,505.2,1984.8,505.2z"/>
	</g>
</g>
</svg>
